<svg xmlns="http://www.w3.org/2000/svg" data-name="Layer 1" viewBox="0 0 130 130" id="gif-file"><polygon fill="#27a6d1" points="11.74 62.72 11.74 73.89 23.02 73.89 22.67 65.72 11.74 62.72"></polygon><path fill="#2394be" d="M24.7,55.77H18.5a6.76,6.76,0,1,0,0,13.51h6.2a.18.18,0,0,0,.18-.17V55.94A.18.18,0,0,0,24.7,55.77Z"></path><path fill="#e5e6e8" d="M118.3,34V118a11,11,0,0,1-11,11H33.17a11,11,0,0,1-11-11V12a11,11,0,0,1,11-11H85.35Z"></path><rect width="67.24" height="39.93" x="22.17" y="72.59" fill="#cdd1d4"></rect><path fill="#cdd1d4" d="M85.35,26.29a11,11,0,0,0,11,11h22V34L85.35,4.32Z" opacity=".35"></path><path fill="#27a6d1" d="M89.41,109.21H18.22a6.53,6.53,0,0,1-6.53-6.53l.05-33.4H89.41Z"></path><path fill="#cdd1d4" d="M85.35,23a11,11,0,0,0,11,11h22l-33-33Z"></path><path fill="#fff" d="M44.53 91.75V88.56h8.23V96.1a10.44 10.44 0 0 1-3.48 2.05 12.79 12.79 0 0 1-4.61.88 10.33 10.33 0 0 1-5.17-1.25 7.85 7.85 0 0 1-3.32-3.56 11.48 11.48 0 0 1-1.11-5 10.83 10.83 0 0 1 1.24-5.25 8.27 8.27 0 0 1 3.62-3.52 9.8 9.8 0 0 1 4.53-1A9.09 9.09 0 0 1 50 80.94 6.7 6.7 0 0 1 52.52 85l-3.8.71a3.92 3.92 0 0 0-1.5-2.2 4.54 4.54 0 0 0-2.76-.81 5.19 5.19 0 0 0-4 1.59A6.71 6.71 0 0 0 39 89a7.39 7.39 0 0 0 1.49 5 5 5 0 0 0 3.93 1.68 6.41 6.41 0 0 0 2.4-.47 7.84 7.84 0 0 0 2.07-1.14v-2.4zM56.17 98.71V79.79H60V98.71zM63.65 98.71V79.79h13V83H67.47v4.48h7.9v3.2h-7.9v8z"></path></svg>